:SAMPLES-PER-SECOND 30
:FULLY-SPECIFIED
:DEGREES
131
root  -66.3114 40.3197 -6.76245 7.24411 -87.316 -13.3293
RightUpLeg  -6.58526 -11.5124 2.26131
RightLeg  25.9984 -1.65449 -1.12419
RightFoot  -9.62937 0.0204652 -5.64967
RightToes  1.16414e-010 0 -3.6325e-017
Spine  7.50679 0.241076 8.30766
Spine1  6.72525 1.30153 -1.12031
HEad  -14.3659 1.25398 -4.45052
LeftShoulder1  8.19206 -11.1828 -48.6817
LeftArm  3.90433 29.67 -24.1494
LeftForeArm  174.187 -72.321 -150.42
LeftHand  -0.244104 0.0205437 5.32207
RightShoulder  5.50591 8.60266 39.3746
RightArm  -2.94202 -14.8013 36.5181
RightForeArm  129.537 72.457 143.19
RightHand  0.152203 -7.79928 -14.5904
LeftUpLeg  -17.259 3.52398 3.28474
LeftLeg  44.5762 4.96745 5.62382
LeftFoot  -10.0477 0.0985081 -3.50426
LeftToes  -6.73059e-011 1.31891e-010 -1.28765e-011
132
root  -67.2952 40.7817 -6.68053 -11.7475 -87.6524 6.53867
RightUpLeg  -4.07362 -12.0315 0.804336
RightLeg  22.3195 -0.663836 -0.348405
RightFoot  -8.12847 0.10448 -5.6844
RightToes  1.16414e-010 0 -3.6325e-017
Spine  6.81719 1.2878 8.10501
Spine1  6.56826 2.43634 -2.14029
HEad  -14.1017 0.33944 -3.69588
LeftShoulder1  7.97529 -11.1965 -47.3361
LeftArm  3.39184 34.5847 -23.9997
LeftForeArm  173.674 -72.0422 -150.814
LeftHand  -0.244104 0.0205437 5.32207
RightShoulder  5.53489 8.88943 38.5914
RightArm  6.46598 -9.85367 35.243
RightForeArm  144.762 72.2532 146.028
RightHand  0.119163 -14.249 -1.66927
LeftUpLeg  -17.7648 6.26207 1.24909
LeftLeg  33.0678 4.2611 3.34486
LeftFoot  -6.92414 0.169595 -3.34074
LeftToes  -6.73059e-011 1.31891e-010 -1.28765e-011
133
root  -68.259 41.0385 -6.55864 -20.8799 -87.5876 16.1697
RightUpLeg  -1.73515 -11.617 -0.29888
RightLeg  19.951 -0.920645 0.244108
RightFoot  -8.05894 0.098095 -5.29397
RightToes  1.16414e-010 0 -3.6325e-017
Spine  6.176 1.72183 8.57029
Spine1  6.98124 3.10285 -3.45672
HEad  -14.866 -0.52357 -3.53286
LeftShoulder1  7.85219 -11.3501 -46.097
LeftArm  2.09775 38.6879 -23.6123
LeftForeArm  173.367 -71.8189 -151.137
LeftHand  -0.244104 0.0205437 5.32207
RightShoulder  5.57515 9.1968 37.8591
RightArm  15.3956 -4.15082 34.9337
RightForeArm  155.57 72.6411 146.988
RightHand  -0.334637 -13.3131 3.79185
LeftUpLeg  -17.409 9.16727 -0.728766
LeftLeg  22.1432 1.82708 1.25485
LeftFoot  -3.57394 0.291877 -3.91098
LeftToes  -6.73059e-011 1.31891e-010 -1.28765e-011
134
root  -69.2457 41.0478 -6.40262 -15.283 -87.6388 10.7534
RightUpLeg  0.148014 -11.6107 -0.720294
RightLeg  19.2811 -0.754129 0.578086
RightFoot  -9.1517 0.022076 -4.40015
RightToes  1.16414e-010 0 -3.6325e-017
Spine  5.32026 1.90765 9.31215
Spine1  8.00635 3.44009 -4.19912
HEad  -15.9037 -0.87574 -3.26095
LeftShoulder1  7.94397 -11.6347 -45.7486
LeftArm  0.294916 41.7098 -22.8172
LeftForeArm  172.142 -71.9457 -150.754
LeftHand  -0.244104 0.0205437 5.32207
RightShoulder  5.7146 9.71045 37.2307
RightArm  23.216 0.918821 34.8427
RightForeArm  156.875 73.3515 145.78
RightHand  -0.216157 -10.3947 3.51991
LeftUpLeg  -16.3347 11.0543 -1.72663
LeftLeg  13.4733 -0.895169 -0.566401
LeftFoot  -0.546691 0.5262 -5.51446
LeftToes  -6.73059e-011 1.31891e-010 -1.28765e-011
135
root  -70.2442 40.8413 -6.22709 5.4873 -88.2845 -10.1015
RightUpLeg  1.32613 -12.0248 -0.463349
RightLeg  20.523 0.399967 0.453713
RightFoot  -10.8845 -0.0594813 -3.63415
RightToes  1.16414e-010 0 -3.6325e-017
Spine  4.72882 2.23445 10.218
Spine1  8.85959 3.93207 -4.76875
HEad  -15.6244 -1.06946 -3.16392
LeftShoulder1  7.99378 -11.716 -45.7922
LeftArm  -1.4023 43.6346 -22.1248
LeftForeArm  169.551 -72.5687 -149.308
LeftHand  -0.244104 0.0205437 5.32207
RightShoulder  5.86754 10.218 36.7578
RightArm  28.6609 3.97283 35.0829
RightForeArm  153.314 74.1077 143.513
RightHand  -0.290977 -10.9195 4.54513
LeftUpLeg  -14.821 8.65176 -0.480747
LeftLeg  8.54989 1.47515 -2.56918
LeftFoot  2.84131 0.559978 -4.7434
LeftToes  -6.73059e-011 1.31891e-010 -1.28765e-011
136
root  -71.192 40.5103 -6.07118 31.5138 -89.3059 -36.3806
RightUpLeg  1.55551 -10.6244 -0.386027
RightLeg  23.8217 0.474795 -0.0599531
RightFoot  -13.5068 -0.126792 -2.21907
RightToes  1.16414e-010 0 -3.6325e-017
Spine  5.07933 2.6668 10.0127
Spine1  8.80288 4.49136 -5.1317
HEad  -13.7942 -0.934183 -2.78908
LeftShoulder1  7.83757 -11.419 -45.7885
LeftArm  -2.89369 44.3652 -21.8449
LeftForeArm  166.116 -73.6628 -146.685
LeftHand  -0.244104 0.0205437 5.32207
RightShoulder  5.9938 10.4495 36.9482
RightArm  31.8652 5.15598 35.6356
RightForeArm  148.354 75.3801 139.331
RightHand  -0.498684 -12.888 6.40103
LeftUpLeg  -14.3359 8.39568 -0.436805
LeftLeg  8.60378 2.90483 -3.17684
LeftFoot  5.91403 -0.0664094 0.190662
LeftToes  -6.73059e-011 1.31891e-010 -1.28765e-011
137
root  -72.0356 40.1716 -5.97657 -140.551 -89.4592 135.405
RightUpLeg  0.370489 -7.95668 -1.46761
RightLeg  29.5321 -0.275572 -0.39785
RightFoot  -15.6367 -0.0738723 0.885865
RightToes  1.16414e-010 0 -3.6325e-017
Spine  6.29657 2.8883 7.77502
Spine1  8.06984 4.64555 -4.88793
HEad  -14.2069 -0.667475 -1.88189
LeftShoulder1  7.62272 -11.0111 -45.7823
LeftArm  -4.54099 43.4467 -22.0152
LeftForeArm  159.389 -75.6889 -140.617
LeftHand  -0.244104 0.0205437 5.32207
RightShoulder  6.20207 10.5029 38.2241
RightArm  33.1327 5.00667 36.1214
RightForeArm  140.61 77.815 128.886
RightHand  -0.491139 -12.266 6.85568
LeftUpLeg  -15.1756 11.3812 -2.72573
LeftLeg  12.4896 1.09686 -2.12436
LeftFoot  6.72184 -0.959194 5.83773
LeftToes  -6.73059e-011 1.31891e-010 -1.28765e-011
138
root  -72.7386 39.9753 -5.92144 -110.001 -88.1152 104.622
RightUpLeg  -2.38516 -6.58851 -3.35356
RightLeg  37.0306 0.247305 -0.046238
RightFoot  -13.9161 0.000393373 4.87959
RightToes  1.16414e-010 0 -3.6325e-017
Spine  7.81717 2.75239 4.99342
Spine1  7.4605 4.33816 -4.42867
HEad  -16.9349 -0.31051 -0.9107
LeftShoulder1  7.56592 -10.8011 -46.1159
LeftArm  -6.42607 40.4784 -22.3346
LeftForeArm  140.969 -78.9395 -123.144
LeftHand  -0.244104 0.0205437 5.32207
RightShoulder  6.52696 10.6325 40.0304
RightArm  31.9553 3.60448 37.0508
RightForeArm  114.573 80.515 98.0024
RightHand  -0.33127 -10.6134 5.80705
LeftUpLeg  -16.0465 14.4228 -5.46093
LeftLeg  16.3879 -1.42102 -0.761315
LeftFoot  5.09185 -1.21434 8.15509
LeftToes  -6.73059e-011 1.31891e-010 -1.28765e-011
139
root  -73.3002 40.0013 -5.84839 -115.233 -87.253 109.733
RightUpLeg  -6.10834 -5.9772 -4.80392
RightLeg  44.3044 1.06649 0.799993
RightFoot  -8.10555 -0.290548 8.26984
RightToes  1.16414e-010 0 -3.6325e-017
Spine  9.25456 2.38719 3.95643
Spine1  7.06549 4.05996 -4.94818
HEad  -19.5623 -0.00200532 -0.719457
LeftShoulder1  7.66475 -10.8548 -46.5559
LeftArm  -8.23729 36.2856 -22.7971
LeftForeArm  97.812 -80.5215 -79.851
LeftHand  -0.244104 0.0205437 5.32207
RightShoulder  6.78938 10.7326 41.4644
RightArm  27.966 1.19125 39.2258
RightForeArm  68.5652 77.5991 47.873
RightHand  -0.226112 -10.4219 3.75534
LeftUpLeg  -15.6294 15.1321 -6.28133
LeftLeg  17.6805 -1.62322 -0.394077
LeftFoot  3.22953 -0.995134 7.61625
LeftToes  -6.73059e-011 1.31891e-010 -1.28765e-011
140
root  -73.7856 40.2234 -5.74142 -134.81 -86.8643 129.524
RightUpLeg  -9.74669 -5.17254 -5.1521
RightLeg  49.0417 1.14795 1.05773
RightFoot  -3.00752 -0.754513 10.1691
RightToes  1.16414e-010 0 -3.6325e-017
Spine  10.3525 2.06088 4.8026
Spine1  5.90548 4.03335 -6.30361
HEad  -20.1206 0.243053 -1.70619
LeftShoulder1  7.81238 -11.1149 -46.6123
LeftArm  -9.86824 32.7796 -23.813
LeftForeArm  59.8297 -75.6054 -38.9907
LeftHand  -0.244104 0.0205437 5.32207
RightShoulder  6.82907 10.5732 42.2305
RightArm  22.1308 -1.62831 41.767
RightForeArm  45.2166 67.7558 22.9637
RightHand  -0.0936909 -10.0972 0.793027
LeftUpLeg  -14.0234 14.6999 -5.31509
LeftLeg  16.145 -0.240291 -0.90621
LeftFoot  2.96822 -0.902392 7.03685
LeftToes  -6.73059e-011 1.31891e-010 -1.28765e-011
141
root  -74.2871 40.5781 -5.62273 -159.8 -86.3096 155.22
RightUpLeg  -12.5491 -4.06661 -4.57061
RightLeg  50.1034 0.378121 0.13395
RightFoot  -2.08251 -0.838189 10.144
RightToes  1.16414e-010 0 -3.6325e-017
Spine  10.781 1.82241 6.21058
Spine1  3.7418 3.9197 -7.12009
HEad  -18.6094 0.807801 -3.08697
LeftShoulder1  7.88821 -11.3984 -46.1604
LeftArm  -11.5761 30.9323 -25.5409
LeftForeArm  46.7802 -67.1798 -21.875
LeftHand  -0.244104 0.0205437 5.32207
RightShoulder  6.77612 10.2931 42.7877
RightArm  16.7116 -4.12768 42.6147
RightForeArm  32.2714 55.996 13.7775
RightHand  0.0133301 -8.6829 -1.95627
LeftUpLeg  -11.901 11.3747 -3.03369
LeftLeg  12.8666 4.09187 -1.97626
LeftFoot  3.79098 -0.977903 7.17858
LeftToes  -6.73059e-011 1.31891e-010 -1.28765e-011
142
root  -74.7953 40.9632 -5.51424 -178.204 -85.4444 174.567
RightUpLeg  -14.2142 -2.84264 -3.59686
RightLeg  47.497 -1.14794 -1.65889
RightFoot  -3.67697 -0.597957 8.50424
RightToes  1.16414e-010 0 -3.6325e-017
Spine  10.8109 1.47877 7.52871
Spine1  1.39432 3.57765 -7.46884
HEad  -15.6148 1.97932 -3.49816
LeftShoulder1  7.76873 -11.5011 -45.1152
LeftArm  -13.3082 30.2926 -27.5756
LeftForeArm  41.1811 -58.4437 -14.5172
LeftHand  -0.244104 0.0205437 5.32207
RightShoulder  6.85687 10.2266 43.5502
RightArm  13.4955 -5.86558 41.0645
RightForeArm  18.4173 44.98 9.85282
RightHand  0.0233082 -8.04911 -2.74469
LeftUpLeg  -9.97354 7.55562 -0.867777
LeftLeg  9.17328 8.60391 -2.96357
LeftFoot  4.42213 -1.01067 7.09634
LeftToes  -6.73059e-011 1.31891e-010 -1.28765e-011
143
root  -75.2578 41.2217 -5.42295 169.629 -84.4453 -172.449
RightUpLeg  -14.8448 -1.52812 -2.60701
RightLeg  42.2562 -3.36691 -3.54347
RightFoot  -5.50434 -0.359838 6.30967
RightToes  1.16414e-010 0 -3.6325e-017
Spine  10.5776 1.18701 8.37146
Spine1  0.549371 3.11806 -6.83088
HEad  -15.4456 3.21959 -3.93555
LeftShoulder1  7.74257 -11.3678 -45.3755
LeftArm  -14.597 29.3095 -28.1648
LeftForeArm  36.4862 -50.737 -10.8415
LeftHand  -0.244104 0.0205437 5.32207
RightShoulder  6.73627 10.1707 42.9265
RightArm  12.7 -6.23673 38.7837
RightForeArm  6.87533 35.2787 7.5168
RightHand  0.0073757 -7.5152 -2.32499
LeftUpLeg  -8.82242 5.77235 0.732565
LeftLeg  6.89675 11.1198 -3.56345
LeftFoot  4.30299 -0.960657 6.7936
LeftToes  -6.73059e-011 1.31891e-010 -1.28765e-011
